<?xml version="1.0" encoding="UTF-8" standalone="no"?>
<!DOCTYPE svg PUBLIC "-//W3C//DTD SVG 1.1//EN" "http://www.w3.org/Graphics/SVG/1.1/DTD/svg11.dtd">
<svg width="100%" height="100%" viewBox="0 0 512 512" version="1.1" xmlns="http://www.w3.org/2000/svg" xmlns:xlink="http://www.w3.org/1999/xlink" xml:space="preserve" xmlns:serif="http://www.serif.com/" style="fill-rule:evenodd;clip-rule:evenodd;stroke-linejoin:round;stroke-miterlimit:2;">
    <path d="M256,0C397.29,0 512,114.71 512,256C512,397.29 397.29,512 256,512C114.71,512 0,397.29 0,256C0,114.71 114.71,0 256,0ZM243.622,396.654C266.127,396.653 285.506,392.653 301.759,384.651C318.013,376.649 330.39,365.585 338.892,351.457C347.394,337.329 351.644,321.263 351.644,303.26C351.644,289.507 348.394,276.942 341.892,265.564C335.391,254.187 326.077,244.998 313.949,237.996C301.822,230.995 287.881,227.244 272.128,226.744L350.144,115.346L171.983,115.346L171.983,152.104L275.504,152.104L206.49,259.376C215.992,257.875 227.619,257.125 241.372,257.125C261.126,257.125 276.817,261.626 288.444,270.628C300.071,279.63 305.885,291.507 305.885,306.26C305.885,341.017 284.506,358.396 241.747,358.396C229.745,358.396 217.992,356.208 206.49,351.832C194.988,347.456 185.486,342.267 177.984,336.266L160.356,371.898C167.607,379.15 179.297,385.089 195.425,389.715C211.553,394.341 227.619,396.653 243.622,396.654Z"/>
</svg>
